<svg width="52" height="52" viewBox="0 0 52 52" fill="none" xmlns="http://www.w3.org/2000/svg">
<path fill-rule="evenodd" clip-rule="evenodd" d="M19.24 26.1404L33.8 30.1106V14.612L19.24 18.5796V26.1404ZM14.04 28.1268C14.0399 28.6974 14.2275 29.2521 14.5737 29.7055C14.92 30.1589 15.4058 30.4858 15.9562 30.6358L35.7162 36.0256C36.1022 36.1308 36.5072 36.1456 36.8998 36.0687C37.2923 35.9918 37.6619 35.8254 37.9796 35.5824C38.2973 35.3393 38.5547 35.0263 38.7317 34.6675C38.9087 34.3088 39.0005 33.9141 39 33.514V11.2034C39.0001 10.8036 38.908 10.4092 38.7308 10.0508C38.5537 9.69238 38.2962 9.37966 37.9786 9.13693C37.6609 8.8942 37.2915 8.728 36.8991 8.65125C36.5067 8.57451 36.102 8.58929 35.7162 8.69444L15.9562 14.0842C15.4058 14.2343 14.92 14.5612 14.5737 15.0146C14.2275 15.468 14.0399 16.0227 14.04 16.5932V28.1268Z" fill="#666666"/>
<path fill-rule="evenodd" clip-rule="evenodd" d="M13.0416 25.48V19.24H10.3194C9.78056 20.192 9.49824 21.2676 9.50007 22.3614C9.50189 23.4553 9.78779 24.5299 10.3298 25.48H13.0416ZM15.6416 30.68C16.3311 30.68 16.9925 30.4061 17.4801 29.9185C17.9676 29.4309 18.2416 28.7696 18.2416 28.08V16.64C18.2416 15.9505 17.9676 15.2892 17.4801 14.8016C16.9925 14.314 16.3311 14.04 15.6416 14.04H8.45778C8.26311 14.0399 8.07047 14.0794 7.89164 14.1563C7.71281 14.2332 7.55156 14.3458 7.41778 14.4872C3.25258 18.8838 3.27078 25.805 7.41258 30.2224C7.54744 30.3667 7.71048 30.4818 7.89161 30.5605C8.07273 30.6392 8.26809 30.6799 8.46558 30.68H15.6416Z" fill="#666666"/>
<path fill-rule="evenodd" clip-rule="evenodd" d="M16.7025 31.2H15.1841L13.1925 39H14.7083L16.7025 31.2ZM15.1841 26C14.0285 26 12.9059 26.3849 11.9934 27.094C11.081 27.803 10.4307 28.7958 10.1453 29.9156L7.3269 40.9578C7.229 41.3418 7.2202 41.7432 7.30118 42.1312C7.38216 42.5192 7.55076 42.8835 7.79411 43.1963C8.03746 43.5092 8.34911 43.7623 8.70524 43.9362C9.06137 44.1101 9.45256 44.2004 9.8489 44.2H14.7109C15.8657 44.1995 16.9874 43.8147 17.8993 43.1062C18.8112 42.3977 19.4613 41.4058 19.7471 40.287L21.7413 32.487C21.9374 31.7191 21.9555 30.9166 21.794 30.1407C21.6326 29.3647 21.2959 28.636 20.8098 28.0101C20.3236 27.3842 19.7008 26.8777 18.9889 26.5293C18.2771 26.181 17.495 25.9999 16.7025 26H15.1841ZM49.4833 11.557C49.6728 11.841 49.8046 12.1597 49.8709 12.4946C49.9373 12.8296 49.9371 13.1744 49.8702 13.5093C49.8033 13.8441 49.6711 14.1626 49.4812 14.4464C49.2912 14.7301 49.0472 14.9737 48.7631 15.1632L44.8631 17.7632C44.2894 18.1459 43.5871 18.285 42.9108 18.15C42.2345 18.0149 41.6396 17.6167 41.2569 17.043C40.8742 16.4693 40.7351 15.767 40.8701 15.0907C41.0052 14.4144 41.4034 13.8195 41.9771 13.4368L45.8771 10.8368C46.1612 10.6472 46.4798 10.5155 46.8148 10.4491C47.1497 10.3828 47.4945 10.383 47.8294 10.4499C48.1643 10.5168 48.4827 10.649 48.7665 10.8389C49.0503 11.0289 49.2938 11.2729 49.4833 11.557ZM40.8201 22.36C40.8201 21.6704 41.094 21.0091 41.5816 20.5215C42.0692 20.0339 42.7305 19.76 43.4201 19.76H47.3201C48.0097 19.76 48.671 20.0339 49.1586 20.5215C49.6462 21.0091 49.9201 21.6704 49.9201 22.36C49.9201 23.0495 49.6462 23.7109 49.1586 24.1985C48.671 24.6861 48.0097 24.96 47.3201 24.96H43.4201C42.7305 24.96 42.0692 24.6861 41.5816 24.1985C41.094 23.7109 40.8201 23.0495 40.8201 22.36ZM41.4285 27.3234C41.648 27.0618 41.9169 26.8461 42.2198 26.6884C42.5228 26.5308 42.8538 26.4344 43.194 26.4047C43.5341 26.375 43.8769 26.4126 44.2025 26.5153C44.5282 26.6181 44.8304 26.784 45.0919 27.0036L48.6799 30.0196C49.1893 30.4684 49.5028 31.0987 49.5537 31.7757C49.6045 32.4527 49.3885 33.1227 48.9518 33.6426C48.5152 34.1624 47.8925 34.4908 47.2169 34.5577C46.5413 34.6245 45.8663 34.4244 45.3363 34.0002L41.7483 30.9842C41.2208 30.5409 40.8908 29.9064 40.8309 29.22C40.7709 28.5336 40.9859 27.8514 41.4285 27.3234Z" fill="#B28A4C"/>
</svg>
